<?xml version="1.0" standalone="no"?>
<!DOCTYPE svg PUBLIC "-//W3C//DTD SVG 20010904//EN"
 "http://www.w3.org/TR/2001/REC-SVG-20010904/DTD/svg10.dtd">
<svg version="1.0" xmlns="http://www.w3.org/2000/svg"
 width="116.000000pt" height="24.000000pt" viewBox="0 0 116.000000 24.000000"
 preserveAspectRatio="xMidYMid meet">

<g transform="translate(0.000000,24.000000) scale(0.100000,-0.100000)"
fill="#000000" stroke="none">
<path d="M24 157 c21 -84 56 -122 70 -74 l7 22 16 -22 c8 -13 19 -23 24 -23 9
0 35 56 45 97 10 38 -14 26 -26 -14 -7 -21 -16 -42 -20 -47 -14 -14 -22 32
-10 54 15 28 4 39 -14 15 -13 -18 -13 -18 -24 1 -15 27 -24 12 -12 -20 6 -16
7 -34 1 -43 -10 -18 -14 -12 -30 40 -13 40 -37 52 -27 14z"/>
<path d="M220 120 l0 -60 40 0 c22 0 40 5 40 10 0 6 -14 10 -31 10 -35 0 -36
23 -1 28 31 5 27 22 -4 22 -34 0 -26 24 9 28 42 5 32 22 -13 22 l-40 0 0 -60z"/>
<path d="M330 120 l0 -60 45 0 c50 0 67 18 47 50 -7 11 -7 21 -1 27 21 21 -2
43 -47 43 l-44 0 0 -60z m70 25 c0 -8 -9 -15 -20 -15 -11 0 -20 7 -20 15 0 8
9 15 20 15 11 0 20 -7 20 -15z m10 -50 c0 -9 -9 -15 -25 -15 -16 0 -25 6 -25
15 0 9 9 15 25 15 16 0 25 -6 25 -15z"/>
</g>
</svg>
