<?xml version="1.0" standalone="no"?>
<!DOCTYPE svg PUBLIC "-//W3C//DTD SVG 20010904//EN"
 "http://www.w3.org/TR/2001/REC-SVG-20010904/DTD/svg10.dtd">
<svg version="1.0" xmlns="http://www.w3.org/2000/svg"
 width="116.000000pt" height="24.000000pt" viewBox="0 0 116.000000 24.000000"
 preserveAspectRatio="xMidYMid meet">

<g transform="translate(0.000000,24.000000) scale(0.100000,-0.100000)"
fill="#000000" stroke="none">
<path d="M24 157 c21 -84 56 -122 70 -74 l7 22 16 -22 c8 -13 19 -23 24 -23 9
0 35 56 45 97 10 38 -14 26 -26 -14 -7 -21 -16 -42 -20 -47 -14 -14 -22 32
-10 54 15 28 4 39 -14 15 -13 -18 -13 -18 -24 1 -15 27 -24 12 -12 -20 6 -16
7 -34 1 -43 -10 -18 -14 -12 -30 40 -13 40 -37 52 -27 14z"/>
<path d="M220 120 l0 -60 40 0 c22 0 40 5 40 10 0 6 -14 10 -31 10 -35 0 -36
23 -1 28 31 5 27 22 -4 22 -34 0 -26 24 9 28 42 5 32 22 -13 22 l-40 0 0 -60z"/>
<path d="M330 120 l0 -60 45 0 c50 0 67 18 47 50 -7 11 -7 21 -1 27 21 21 -2
43 -47 43 l-44 0 0 -60z m70 25 c0 -8 -9 -15 -20 -15 -11 0 -20 7 -20 15 0 8
9 15 20 15 11 0 20 -7 20 -15z m10 -50 c0 -9 -9 -15 -25 -15 -16 0 -25 6 -25
15 0 9 9 15 25 15 16 0 25 -6 25 -15z"/>
<path d="M472 168 c-21 -21 -13 -45 18 -58 17 -7 30 -17 30 -22 0 -6 -13 -8
-30 -4 -22 4 -30 2 -30 -8 0 -17 49 -27 72 -15 30 16 23 55 -12 68 -35 12 -40
33 -7 29 12 -2 24 2 27 7 7 15 -53 18 -68 3z"/>
<path d="M570 170 c0 -5 9 -10 20 -10 17 0 20 -7 20 -50 0 -38 4 -50 15 -50
11 0 15 12 15 50 0 43 3 50 20 50 11 0 20 5 20 10 0 6 -25 10 -55 10 -30 0
-55 -4 -55 -10z"/>
<path d="M693 133 c3 -32 12 -53 27 -65 29 -23 36 -23 65 7 29 29 36 105 10
105 -10 0 -15 -10 -15 -34 0 -47 -9 -66 -30 -66 -21 0 -30 19 -30 66 0 25 -4
34 -16 34 -14 0 -16 -8 -11 -47z"/>
<path d="M840 120 l0 -61 42 3 c35 2 45 8 56 31 11 22 11 32 0 55 -11 22 -21
28 -56 30 l-42 3 0 -61z m74 18 c14 -23 -3 -52 -33 -56 -18 -3 -21 2 -21 31 0
18 3 37 7 41 11 11 35 3 47 -16z"/>
<path d="M970 120 c0 -47 3 -60 15 -60 12 0 15 13 15 60 0 47 -3 60 -15 60
-12 0 -15 -13 -15 -60z"/>
<path d="M1040 160 c-25 -25 -25 -51 -2 -80 34 -42 112 -15 112 39 0 54 -70
81 -110 41z m68 -12 c17 -17 15 -43 -4 -59 -31 -26 -70 25 -44 56 15 18 32 19
48 3z"/>
</g>
</svg>
